<?xml version="1.0" encoding="UTF-8"?>
<svg version="1.1" xmlns="http://www.w3.org/2000/svg" width="800" height="800">
<path d="M0 0 C2 2 2 2 2.5 5 C2.15399238 13.88693262 -6.15696684 22.10255027 -11.30395508 28.91015625 C-13.31758415 31.58985611 -14.93225249 33.79675747 -16 37 C-14.99582031 36.52949219 -13.99164063 36.05898437 -12.95703125 35.57421875 C13.81950242 23.26070567 36.79898171 26.66166459 64.50956726 33.49287415 C68.17779702 34.38423494 71.83104539 35.17135312 75.55566406 35.79052734 C76.28806305 35.9136882 77.02046204 36.03684906 77.77505493 36.16374207 C79.78978703 36.49150145 81.80815667 36.79667202 83.82666016 37.1003418 C87 38 87 38 88.96923828 39.91210938 C90 42 90 42 89.578125 44.89453125 C87.6351416 48.7179763 84.99165733 51.00482683 81.75 53.6875 C70.09285687 63.9032456 65.94121223 77.31861861 62.56665039 92.11181641 C57.76980508 113.11468531 51.0461184 130.98720475 32.19921875 143.08203125 C22.32790224 149 22.32790224 149 17 149 C17 149.66 17 150.32 17 151 C17.804375 151.3403125 17.804375 151.3403125 18.625 151.6875 C26.30960874 155.93425746 31.23642259 162.43073125 34.375 170.5625 C34.58125 171.366875 34.7875 172.17125 35 173 C30.52396691 172.49327927 26.16355076 171.8407085 21.75 170.9375 C15.81189551 169.81317446 10.02386029 169.81076879 4 170 C4.6496875 170.39832031 5.299375 170.79664063 5.96875 171.20703125 C6.8040625 171.73683594 7.639375 172.26664063 8.5 172.8125 C9.75296875 173.59560547 9.75296875 173.59560547 11.03125 174.39453125 C11.6809375 174.92433594 12.330625 175.45414063 13 176 C13 176.99 13 177.98 13 179 C12.01 179.33 11.02 179.66 10 180 C10.79019531 180.24492187 11.58039063 180.48984375 12.39453125 180.7421875 C26.13778636 185.29709491 38.54932515 192.2131377 50.84985352 199.78295898 C60.78292347 205.89424771 69.7324076 209.82195117 81.11987305 212.37988281 C94.99569945 215.51318377 106.82741222 219.80645353 118 229 C118.72832031 229.56589844 119.45664062 230.13179687 120.20703125 230.71484375 C127.70022738 236.80396106 133.65739648 244.26612447 135 254 C134.71875 256.1640625 134.71875 256.1640625 134 258 C133.01 258.33 132.02 258.66 131 259 C129.02 257.68 127.04 256.36 125 255 C125 262.26 125 269.52 125 277 C141.84402425 284.00592159 158.81192189 290.14759978 176.171875 295.75341797 C179.41239951 296.80347653 182.64214789 297.88328619 185.86933899 298.97355652 C187.78785864 299.62059571 189.70831094 300.26149843 191.62963867 300.90014648 C194.01573528 301.69371935 196.39893654 302.49607352 198.77856445 303.30883789 C208.45482096 306.48468303 215.54994376 307.38401169 224.875 303 C225.90971436 302.52796143 225.90971436 302.52796143 226.96533203 302.04638672 C246.87031286 292.63381022 260.88589207 275.08620663 274 258 C274.63454102 257.1740332 275.26908203 256.34806641 275.92285156 255.49707031 C285.33248071 243.2679174 285.33248071 243.2679174 294.4375 230.8125 C305.78357301 215.13113708 320.22110375 202.31662835 339.61230469 198.35961914 C357.04384155 195.73419442 373.12854329 198.47237876 388 208 C393.64711009 212.1900569 398.27710588 216.44030053 401 223 C400.75 225.9375 400.75 225.9375 400 228 C393.61119931 228.1252706 393.61119931 228.1252706 390.63671875 227.515625 C380.0023492 225.43601496 368.81857914 226.94457389 359.46484375 232.5078125 C357.15200584 234.21367923 355.08072649 236.01892517 353 238 C352.34773437 238.58910156 351.69546875 239.17820312 351.0234375 239.78515625 C339.69656534 251.1345919 333.93185843 268.18047471 327.60913086 282.57641602 C311.91297674 318.28736235 311.91297674 318.28736235 302 332 C301.39285156 332.84691406 300.78570313 333.69382812 300.16015625 334.56640625 C292.34545727 344.85933958 282.70010999 354.72392521 272 362 C272.83255897 363.88469394 273.69230869 365.75738313 274.5625 367.625 C275.03816406 368.66914063 275.51382813 369.71328125 276.00390625 370.7890625 C280.24461656 377.61071393 287.24182102 381.67387994 293.8125 386.0625 C303.35166577 392.51737888 312.73176925 399.16204156 322 406 C322.73524902 406.54156738 323.47049805 407.08313477 324.22802734 407.64111328 C359.16728174 433.50184521 359.16728174 433.50184521 365 451 C365.61868995 459.55009225 365.88413398 466.67379903 361 474 C360.34 474.66 359.68 475.32 359 476 C357 475.625 357 475.625 355 475 C354.34 475 353.68 475 353 475 C351.87503075 476.47522353 350.82495715 478.00790333 349.8125 479.5625 C346.63354463 484.25746981 343.16895117 488.1731816 339 492 C346.42268918 492.91105677 346.42268918 492.91105677 353.26171875 490.58203125 C354.55252537 489.35406309 355.81838292 488.09936083 357.05859375 486.8203125 C364.03000411 480.2837386 373.41427473 479.67910866 382.46484375 479.80078125 C392.47553709 480.36491977 398.19229009 484.78308348 405 492 C406.33333333 494 407.66666667 496 409 498 C410.28293568 499.01759504 411.59916052 499.99395825 412.9375 500.9375 C417.94093445 504.49404576 421.89541073 508.75907065 423 515 C423.73673712 524.6983592 423.55960599 532.59320209 417.12890625 540.21875 C414.28446158 543.18686618 411.85290774 545.5920876 408.125 547.375 C405.44354245 549.42552637 405.57785198 550.36277191 405.0625 553.625 C403.95236467 560.48583638 401.18783683 565.54741384 395.62890625 569.82421875 C382.55012915 578.04573312 368.36002886 577.95774966 353.75390625 574.88671875 C351.83693027 574.43390549 349.91810567 573.97417728 348.03955078 573.38183594 C342.79822361 571.79495332 338.9943468 572.42288457 333.75 573.875 C313.3511004 578.69833597 288.25119327 578.15107275 268 573 C267.30535645 572.83371094 266.61071289 572.66742187 265.89501953 572.49609375 C249.08747969 568.41604362 230.42337636 561.34398454 221 546 C218.37458416 540.39115708 218.0414428 534.54723564 219.65234375 528.5859375 C224.3408165 515.90895108 232.81956366 506.56579531 242 497 C250.19314667 488.44121342 256.66028817 480.09037468 261 469 C259.741875 468.7525 258.48375 468.505 257.1875 468.25 C253.76274208 467.57462816 250.35220062 466.85856654 246.94921875 466.08203125 C186.53253689 452.46756449 113.88401519 451.907732 55 472 C55.1110501 478.21880587 56.36272734 481.25443869 60.64453125 485.73046875 C67.05210148 491.90426362 73.57776981 497.93364211 80.3125 503.75 C90.27092578 512.42685622 99.05113298 521.41948277 100.28515625 535.1796875 C100.54351954 544.90762697 99.06951088 551.80203434 92.31640625 558.9921875 C79.9039037 569.75108516 63.23262872 574.24144994 47.5625 577.75 C46.68279541 577.94875732 45.80309082 578.14751465 44.89672852 578.35229492 C28.59675399 581.78410077 12.54505568 582.25534736 -4.04370117 581.80810547 C-14.59567175 581.54402029 -23.96220243 582.21843253 -34.15893555 585.04394531 C-46.39838624 588.09038839 -61.97297056 588.7689797 -73.28125 582.32421875 C-77.72024075 578.90417815 -81.0432997 574.61682533 -81.875 569 C-81.91625 568.01 -81.9575 567.02 -82 566 C-82.556875 565.92523437 -83.11375 565.85046875 -83.6875 565.7734375 C-90.85916047 564.53777978 -96.06662829 561.78499575 -100.57421875 555.96875 C-105.15868734 548.92784695 -105.92344571 542.50937104 -104.5390625 534.25 C-102.60667921 526.0657884 -99.17144342 520.31146074 -92.4375 515.25 C-89.16900684 512.6309236 -88.03131033 510.08625495 -86.5625 506.1875 C-83.69588202 498.63090703 -79.60239961 493.09594159 -72.5625 489 C-60.92180967 485.7324378 -51.06455915 487.87654239 -40.40234375 493.52734375 C-36.33836533 496.01859556 -32.64896888 498.94156473 -29 502 C-28.67 501.67 -28.34 501.34 -28 501 C-28.49628906 500.6596875 -28.99257813 500.319375 -29.50390625 499.96875 C-35.11822089 495.96309098 -40.8579103 491.28417941 -44 485 C-44.33 485.33 -44.66 485.66 -45 486 C-48.32638201 486.369598 -50.32837734 486.39177989 -53.25 484.6875 C-56.73537996 479.33495221 -57.59218611 472.70085301 -56.5 466.4375 C-52.41619531 452.00291991 -40.22113531 440.89321375 -28 433 C-27.34 433 -26.68 433 -26 433 C-26.15597656 432.15179687 -26.31195313 431.30359375 -26.47265625 430.4296875 C-28.84815396 416.11377415 -27.15067046 403.82019534 -23 390 C-22.69320312 388.95457031 -22.38640625 387.90914063 -22.0703125 386.83203125 C-21.3943808 384.54995709 -20.70594545 382.27293043 -20 380 C-21.03125 380.495 -22.0625 380.99 -23.125 381.5 C-30.25899931 384.15303533 -39.4051016 384.61784391 -46.4375 381.4375 C-52.1689097 377.96167734 -56.98096037 373.48771977 -59 367 C-59.83829309 358.91101604 -59.07176596 353.37135926 -54.375 346.6875 C-50.77059208 344.12647332 -47.3630989 343.90425802 -43 344 C-41.32503988 344.28878623 -39.65735642 344.6230934 -38 345 C-33.12074108 346.08008363 -28.81070969 346.64373086 -24 345 C-20.95038843 343.00935205 -18.28245826 340.8484084 -16 338 C-16 337.01 -16 336.02 -16 335 C-18.41645043 333.13835645 -18.41645043 333.13835645 -21.5625 331.25 C-37.92084546 320.47793053 -49.51422076 305.45043993 -58 288 C-63.48906174 288.53492517 -68.39161952 289.52808728 -73.5625 291.5 C-74.24650879 291.75990723 -74.93051758 292.01981445 -75.63525391 292.28759766 C-92.92296955 299.15901804 -110.70199088 311.10443661 -119.046875 328.13671875 C-122.19410267 336.6431407 -121.2472842 346.07945148 -121 355 C-120.26394531 354.81566406 -119.52789062 354.63132812 -118.76953125 354.44140625 C-115.94360905 353.99101244 -114.40488825 354.17742614 -111.6875 354.9375 C-106.04815312 356.29581445 -101.32767826 357.18759095 -95.9375 354.4375 C-93.59608089 352.49462031 -91.54593509 350.55159571 -89.4375 348.375 C-86.76876576 345.65965031 -84.8454308 343.75032796 -81 343 C-75.01247087 343 -71.73233618 344.16925276 -67.41015625 348.34375 C-63.50060238 352.93558058 -63.5544122 358.4809001 -63.6953125 364.2578125 C-64.48992744 371.40934699 -68.28132803 376.02826333 -73.74609375 380.4765625 C-77.57069006 383.06164493 -81.6535887 384.51242543 -86 386 C-94.51339876 388.93101198 -101.28172558 391.94427729 -108 398 C-108.60199219 398.47566406 -109.20398438 398.95132812 -109.82421875 399.44140625 C-121.44291416 409.44131713 -126.62702087 428.40386888 -128 443 C-128.06646724 445.64523012 -128.09502903 448.25957691 -128.0625 450.90234375 C-128.05871338 451.62434464 -128.05492676 452.34634552 -128.05102539 453.09022522 C-128.03488674 456.13826836 -128.00670902 459.18616978 -127.97949219 462.23413086 C-127.78836283 485.7153787 -127.78836283 485.7153787 -133 492 C-137.5243884 495.01625893 -141.70422554 494.77879036 -147 494 C-153.81025182 491.34692644 -157.14071544 487.01407573 -160.02734375 480.46484375 C-160.69857881 478.76384245 -161.32776957 477.04585722 -161.921875 475.31640625 C-163.3236352 472.30465335 -165.31241359 471.51355789 -168.19140625 470.03515625 C-170.9267199 468.46958796 -172.87593767 466.30106753 -175 464 C-175.598125 463.401875 -176.19625 462.80375 -176.8125 462.1875 C-177.204375 461.795625 -177.59625 461.40375 -178 461 C-178.7734375 462.6396875 -178.7734375 462.6396875 -179.5625 464.3125 C-181.29324033 467.30637713 -182.14724386 468.09061161 -185.25 470 C-189.60048484 471.16012929 -192.71542012 471.40492334 -197 470 C-203.3965618 465.94064347 -205.55854621 460.67570717 -208.25 453.8125 C-211.95553984 434.97600581 -204.66134313 417.01780418 -194.7265625 401.28125 C-188.61816862 392.27940639 -182.01453959 383.68099199 -173.9375 376.375 C-171.05256869 373.53041738 -169.39185203 371.74123382 -169.1875 367.625 C-170.02399835 360.01684837 -173.3285723 352.74669268 -177.0703125 346.14453125 C-179.855817 339.71914481 -180.29601782 333.58123701 -180.1875 326.6875 C-180.18685547 325.89021484 -180.18621094 325.09292969 -180.18554688 324.27148438 C-180.16032575 320.93949302 -180.06011284 318.18033851 -179 315 C-180.2065625 315.0309375 -180.2065625 315.0309375 -181.4375 315.0625 C-184 315 -184 315 -185 314 C-186.17355951 304.47685317 -183.37684098 296.87266031 -177.6875 289.3125 C-172.16665007 282.42814718 -165.98823677 277.02737129 -158.6875 272.125 C-147.95956348 264.72594381 -138.98870564 256.54953281 -130.88671875 246.3359375 C-124.95613836 238.89966571 -118.97227712 232.41839086 -110.84790039 227.38427734 C-110.12735977 226.9369223 -109.40681915 226.48956726 -108.66444397 226.02865601 C-108.11517746 225.68919952 -107.56591095 225.34974304 -107 225 C-107.64320694 224.99413376 -108.28641388 224.98826752 -108.94911194 224.98222351 C-115.71545255 224.91770123 -122.48134305 224.83313929 -129.24731445 224.73754883 C-131.76385519 224.70453604 -134.28046577 224.67643265 -136.79711914 224.65356445 C-160.94887556 224.4282056 -180.77411733 223.06670007 -200 207 C-200.50789063 206.44441406 -201.01578125 205.88882813 -201.5390625 205.31640625 C-203.4918024 203.55685185 -205.27439093 203.19020439 -207.8125 202.5625 C-213.57317095 200.93576031 -217.41244753 198.83821865 -221.375 194.25 C-223.32119297 190.35761406 -223.80643265 187.22766207 -223 183 C-221.96682249 180.17671814 -220.8392041 178.48541095 -219 176 C-216.35546875 174.8046875 -216.35546875 174.8046875 -214 174 C-214.54140625 173.16082031 -214.54140625 173.16082031 -215.09375 172.3046875 C-219.41098235 164.84546939 -219.55012263 158.48411348 -219 150 C-231.0694339 147.23943799 -242.65061337 145.50998735 -255.03515625 145.17578125 C-259 145 -259 145 -262 144 C-262 143.34 -262 142.68 -262 142 C-256.83001989 140.85054224 -251.90154482 140.80891112 -246.625 140.8125 C-245.16682861 140.8115332 -245.16682861 140.8115332 -243.67919922 140.81054688 C-235.64314004 140.86886563 -227.91468459 141.61924506 -220 143 C-222.09390611 136.28348149 -227.08420604 134.22981128 -233 131 C-237.97177186 128.50363001 -243.02454307 126.18684529 -248.08837891 123.88476562 C-250.75617221 122.65001685 -253.38000526 121.33261899 -256 120 C-256 119.34 -256 118.68 -256 118 C-244.20430719 118.21063737 -233.55635134 124.14194863 -224 130.625 C-220.16115193 133.30620483 -220.16115193 133.30620483 -215.734375 133.80078125 C-213.73946434 132.9732191 -213.73946434 132.9732191 -211.8984375 131.89453125 C-208.34262129 130.21905407 -204.70367259 131.0894853 -201 132 C-197.6950768 133.38205879 -195.52176462 134.47823538 -193 137 C-190.80708918 137.45662153 -188.59414111 137.820412 -186.375 138.125 C-185.18648438 138.29257813 -183.99796875 138.46015625 -182.7734375 138.6328125 C-181.85820312 138.75398437 -180.94296875 138.87515625 -180 139 C-180 137.02 -180 135.04 -180 133 C-181.11375 133.1546875 -181.11375 133.1546875 -182.25 133.3125 C-185 133 -185 133 -187.375 131.1875 C-189.87011345 126.293239 -189.30982309 122.24633441 -188 117 C-185.614281 111.17106245 -182.61156798 107.20106702 -177.4375 103.625 C-172.58129193 100.1818023 -171.17389246 96.46472817 -169.15625 90.984375 C-163.64340444 76.75527363 -150.61291744 66.34993858 -137.09960938 60.12451172 C-127.66056389 56.04257156 -118.13186484 53.65952959 -108 52 C-116.40554534 53.05349502 -124.72204547 54.16911123 -133 56 C-132.64929572 53.20051843 -132.15467235 52.14529827 -130.06640625 50.18359375 C-120.48459665 43.50173901 -111.79827383 41.7478951 -100.3203125 40.72265625 C-96.62112225 39.91753837 -95.33686401 38.90640122 -93 36 C-108.09544262 32.36671295 -124.63232672 30.86012656 -139.87890625 34.5625 C-142.2950352 35.06085441 -144.5397179 35.06918192 -147 35 C-147 34.34 -147 33.68 -147 33 C-128.06881814 22.79103806 -109.26092226 20.7299422 -88.42578125 25.44140625 C-85.11073754 25.98194359 -83.14781326 26.09704875 -80 25 C-79.01 24.01 -78.02 23.02 -77 22 C-82.28 19.36 -87.56 16.72 -93 14 C-93 13.34 -93 12.68 -93 12 C-85.93284677 10.19122221 -78.4266703 11.80542178 -71.8125 14.6875 C-63.89666725 17.88102119 -53.80762052 14.01980094 -45.79052734 12.20849609 C-43.77011657 11.75452009 -41.74669302 11.31638952 -39.72265625 10.87890625 C-28.35768241 8.36304497 -17.82732601 4.36088941 -7.21875 -0.3984375 C-4.44758026 -1.14977577 -2.72520734 -0.84481428 0 0 Z " fill="#FFFFFF" transform="translate(377,93)"/>
<path d="M0 0 C7.17659511 1.05054214 13.24834617 5.62856523 18 11 C18.33 9.35 18.66 7.7 19 6 C19.99 6.33 20.98 6.66 22 7 C22 7.66 22 8.32 22 9 C22.61488281 8.83242188 23.22976562 8.66484375 23.86328125 8.4921875 C24.67152344 8.28851562 25.47976562 8.08484375 26.3125 7.875 C27.11300781 7.66617188 27.91351563 7.45734375 28.73828125 7.2421875 C31 7 31 7 34 9 C34.6019135 14.01594585 33.61111948 17.67796417 31.65625 22.203125 C30.82847281 24.15083076 30.82847281 24.15083076 31 27 C31.845625 26.71125 32.69125 26.4225 33.5625 26.125 C46.17816813 21.99623588 46.17816813 21.99623588 52 23 C55.60009884 25.15005903 58.1858262 27.72564101 60.4375 31.25 C62.33578516 40.53050525 60.66509961 48.31615569 55.5390625 56.265625 C52.94907062 59.81536006 50.14180236 62.9259089 47 66 C47.84594727 65.86368164 47.84594727 65.86368164 48.70898438 65.72460938 C51.30501374 65.31001009 53.9024495 64.9049552 56.5 64.5 C57.386875 64.35691406 58.27375 64.21382812 59.1875 64.06640625 C68.72407122 62.59384746 76.25039726 62.34295338 85 67 C85.70125 67.763125 86.4025 68.52625 87.125 69.3125 C88.99896924 71.35355189 88.99896924 71.35355189 92.375 71.1875 C102.0137738 69.40720409 110.99123675 63.24238283 118.76171875 57.5703125 C128.57505478 50.68556366 138.48499772 49.59232494 150.16992188 48.96484375 C155.77807214 48.64539804 155.77807214 48.64539804 160.61328125 46.0546875 C162.02371999 44.06061883 162.02371999 44.06061883 163 42 C163.66 42 164.32 42 165 42 C165.3125 45.3125 165.3125 45.3125 165 49 C160.73476111 52.65591905 155.67403858 52.80585719 150.3125 53.4375 C136.11176205 55.36673369 125.71935636 60.45979409 114.5625 69.5625 C109.49494151 73.62386457 103.85648303 76.26245439 98 79 C96.6644592 79.66223333 95.33015884 80.32702178 94 81 C94.47247666 83.92935531 94.85703236 86.30390887 96 89 C98.6305719 90.93270858 98.6305719 90.93270858 102 91 C104.34205301 90.02059602 106.67518826 89.01965427 109 88 C115.37264567 88 120.56903677 90.92037334 126 94 C126.33 94.33 126.66 94.66 127 95 C129.27983876 95.53092135 131.57194084 95.96317971 133.87109375 96.40234375 C136 97 136 97 138 99 C138.4375 101.375 138.4375 101.375 138 104 C132.7730112 108.95188413 132.7730112 108.95188413 129.15576172 109.05004883 C128.42115723 109.01935303 127.68655273 108.98865723 126.9296875 108.95703125 C126.115 108.93576172 125.3003125 108.91449219 124.4609375 108.89257812 C122.75998623 108.83990516 121.05935901 108.77513756 119.359375 108.69726562 C113.93077113 108.58239705 110.45682967 109.41245118 105.72949219 112.07202148 C101.1065809 114.55249661 95.74707356 113.77807648 90.85888672 112.39355469 C87.60870017 111.35485633 84.37969937 110.26006633 81.15380859 109.1484375 C74.23158733 106.84977931 68.31046332 106.29126567 61 107 C60.87753906 107.62390625 60.75507812 108.2478125 60.62890625 108.890625 C60 111 60 111 57.9375 112.75 C51.33254223 115.56062033 43.97624904 113.67028473 37.1875 112.25 C36.34251953 112.09273437 35.49753906 111.93546875 34.62695312 111.7734375 C28.57741031 110.52412763 28.57741031 110.52412763 25.92578125 108.1171875 C24.90178449 105.775389 24.85069078 104.4039249 25 101.875 C24.72447224 97.62904653 23.0853273 95.67209411 20.00195312 92.79931641 C17.71328514 90.8070895 15.38183599 88.87957074 13 87 C-0.2776847 90.471395 -0.2776847 90.471395 -9.67578125 99.8515625 C-11.62030513 103.00639475 -13.48151616 105.56773088 -17.140625 106.609375 C-17.83671875 106.65578125 -18.5328125 106.7021875 -19.25 106.75 C-20.4875 106.8325 -21.725 106.915 -23 107 C-23.556875 106.071875 -23.556875 106.071875 -24.125 105.125 C-26.49040046 102.44421281 -28.60903913 101.95831503 -32 101 C-33 100 -33 100 -33.375 96.9375 C-33.00217995 93.02288948 -32.71738383 92.28089904 -30.5625 89.3125 C-27.47179989 84.89349338 -27.36548557 80.82808408 -27.23828125 75.5390625 C-27 73 -27 73 -25 71 C-22.6875 70.5625 -22.6875 70.5625 -20 71 C-19.195625 71.845625 -18.39125 72.69125 -17.5625 73.5625 C-15.20433103 76.37777061 -15.20433103 76.37777061 -11.8125 75.9375 C-8.90217203 75.20031442 -8.90217203 75.20031442 -7 73 C-7.54527344 72.81824219 -8.09054688 72.63648438 -8.65234375 72.44921875 C-10.24101567 71.91966144 -11.82954715 71.38968268 -13.41796875 70.859375 C-15.08619428 70.30414109 -16.7554029 69.75184832 -18.42578125 69.203125 C-19.57626953 68.82414063 -19.57626953 68.82414063 -20.75 68.4375 C-21.86761719 68.07011719 -21.86761719 68.07011719 -23.0078125 67.6953125 C-25 67 -25 67 -27.625 65.8125 C-30.79961811 64.72644644 -33.67242039 64.86950668 -37 65 C-37.33 66.32 -37.66 67.64 -38 69 C-41.94009501 70.09447084 -43.44611791 69.83426173 -47 68 C-49.98970481 68.35172998 -50.82711465 68.82711465 -53 71 C-57.55555556 70.44444444 -57.55555556 70.44444444 -59 69 C-59.04080783 67.00041636 -59.04254356 64.99954746 -59 63 C-60.7015625 63.0309375 -60.7015625 63.0309375 -62.4375 63.0625 C-66 63 -66 63 -67 62 C-67.1245486 60.35769636 -67.17568524 58.70947724 -67.1875 57.0625 C-67.20167969 56.16660156 -67.21585937 55.27070312 -67.23046875 54.34765625 C-67 52 -67 52 -65 50 C-61.511504 49.85688222 -58.06681068 50.00623623 -54.578125 50.125 C-50.95635414 49.99847525 -48.39010399 49.19814634 -45 48 C-42.4453125 47.8046875 -42.4453125 47.8046875 -40.125 47.875 C-38.95324219 47.90207031 -38.95324219 47.90207031 -37.7578125 47.9296875 C-36.88769531 47.96449219 -36.88769531 47.96449219 -36 48 C-36.98354232 45.39334411 -37.51802971 44.23597411 -40.06640625 42.98828125 C-45.11173034 41.62233279 -49.96797378 40.60240197 -55.1875 40.2109375 C-57 40 -57 40 -59 39 C-59 38.34 -59 37.68 -59 37 C-52.2314676 36.89847201 -45.69675136 36.96973056 -39 38 C-42.63 35.69 -46.26 33.38 -50 31 C-49.67 30.34 -49.34 29.68 -49 29 C-44.20399572 30.33766106 -40.15949105 31.65383836 -36.25 34.8125 C-35.1775 35.534375 -34.105 36.25625 -33 37 C-30.31828566 36.59632151 -30.31828566 36.59632151 -28 35 C-26.8410233 32.66993499 -26.8410233 32.66993499 -26.375 29.8125 C-26.14941406 28.75160156 -25.92382812 27.69070313 -25.69140625 26.59765625 C-25.46324219 25.41042969 -25.23507813 24.22320313 -25 23 C-24.71911323 21.62335708 -24.43650801 20.24706387 -24.15234375 18.87109375 C-23.41072677 15.25198584 -22.69876841 11.62764878 -22 8 C-19 9 -19 9 -18 11 C-17.01 10.01 -16.02 9.02 -15 8 C-14 11 -14 11 -15 14 C-14.34773438 13.7834375 -13.69546875 13.566875 -13.0234375 13.34375 C-1.59459459 9.7027027 -1.59459459 9.7027027 3 12 C3.33 11.01 3.66 10.02 4 9 C5.65 9.66 7.3 10.32 9 11 C6.16377205 7.45471507 3.6522858 4.70539689 0 2 C0 1.34 0 0.68 0 0 Z " fill="#FFFFFF" transform="translate(67,566)"/>
</svg>
